<?xml version="1.0" encoding="utf-8"?>
<!-- Generator: Adobe Illustrator 18.0.0, SVG Export Plug-In . SVG Version: 6.00 Build 0)  -->
<!DOCTYPE svg PUBLIC "-//W3C//DTD SVG 1.1//EN" "http://www.w3.org/Graphics/SVG/1.1/DTD/svg11.dtd">
<svg version="1.1" id="Laag_1"
	 xmlns="http://www.w3.org/2000/svg" xmlns:xlink="http://www.w3.org/1999/xlink" x="0px" y="0px" viewBox="0 0 23.3 26.1"
	 enable-background="new 0 0 23.3 26.1" xml:space="preserve">
<g id="arrow">
	<path fill-rule="evenodd" clip-rule="evenodd" fill="none" stroke="#FFFFFF" stroke-width="1.1248" stroke-miterlimit="10" d="
				M22.2,13.1L22.2,13.1c-0.8-0.8-2.1-0.8-2.8-0.1l-5.7,5.7V2.5c0-1.1-0.9-1.9-1.9-1.9h-0.1c-1.1,0-1.9,0.9-1.9,1.9v16.3L3.9,13
				c-0.8-0.8-2-0.8-2.7,0l-0.1,0.1c-0.8,0.8-0.8,2,0,2.7l9.1,9.1c0.4,0.4,0.9,0.6,1.4,0.6c0.5,0,1-0.2,1.4-0.6l9.1-9.1
				C22.9,15.1,22.9,13.9,22.2,13.1z"/>
</g>
</svg>
